/* XPM */
static char *_657047477575[] = {
/* columns rows colors chars-per-pixel */
"32 32 7 1 ",
"  c #E88EC1",
". c #E47EB9",
"X c #D962A3",
"o c #D6549B",
"O c #BF4692",
"+ c #AC3382",
"@ c #9D2F77",
/* pixels */
"XoooXXoXXoooX.O+@+O+++OOOOX..XXX",
"XXXXXooooXXXX.+@+OO+OO+++OOOX..X",
"XXXoooXXXXoX. +@+++OO+++OO++OX..",
" .XXXXXXooX. .O+@+++++O++OO+++o.",
".  .XoooX..  .X@@@+@+O++OOOOOOXo",
"X.   ...  .....O+@@+OOOOO+O+OoXX",
"X..XXOOOOooX....XO@@+OO++++OXXXo",
"X.XO++@@@+OOoX. .XOOO++@@@OX.Xoo",
"oXO@@@@+@@+@OooX  .XOOOOOX..XOOo",
"o+@@@++@+OO++OooX.  .......X@@+O",
"+@@+@@++OO+OO+OooX...  ...X+++OO",
"+@+@+OO+++++OO+ooXXXoo. X+@@O+++",
"O@@+OO++OO++++@oXX++OXo.+@@+OOO+",
"X@+++OOOO++O+OoX+OOoOoX..+@@+++O",
"X@++OoOOOOO+oXX+OooooX.  ..XOOOo",
"Xo@+O+oXO+oXX.+OOOooX. .OOo.  .X",
"XXo@@+OoooXX.XOooooO. .OOOOOXX .",
".XXoooXXXXX..XooOoX...OOoooO+O..",
"  .XXXX....  .XOX. .oOOooXXoO+o.",
".  ...    XXX..  .oOOoXXooooooOo",
".XX.    ...XoooO++OoXXXXXoXXoooo",
"XO++OX.   ...XO+OoooXXoooooXXooX",
"O+@@@@+OX.  ..OOooXXoooXXXoooXXX",
"+@++@@@@+O.  .X+oXXXXXXXooooXX.X",
"+++@@OO+@+O.. .oOoXooXXXXooOX.oO",
"+OO++++O+@+O....XoooXXoooOO...XO",
"OO++OO++++++..X...XoooOOOO. XoO+",
"++OOO+++OO+@O..oX...XXX.   XoO++",
"+OOOooO++OO+@...ooX   ..XXooO+oO",
"OooOOOooOOO+O. XXooooooooooXOooo",
"oXOOXXXooO++O. XOOOOXXoooXXOooOO",
"XXoOOXooOO+Oo..OO++OOOOXXXXooooO"
};
