/* XPM */
static char *_657047500533[] = {
/* columns rows colors chars-per-pixel */
"32 32 14 1 ",
"  c #A2A2A2",
". c #F38268",
"X c #4FBA98",
"o c #E0734D",
"O c gray56",
"+ c #599581",
"@ c gray50",
"# c #C16746",
"$ c #818058",
"% c #747474",
"& c #686868",
"* c #3A7663",
"= c gray36",
"- c #3A685A",
/* pixels */
"OOOOOOOO@%%%@%@@@%&&%&%%@OO@%%@@",
"@OOO@O@@@@%%%@@@%%%&&%%@@@@@@@@@",
"@@%%%%@%%%@@@%%@OO@OO@&&%&&%@%%%",
"O@@@%==&%%%@%%@@%@%%@@@==&&@%%@O",
"@@%&=++*O%%%%&&&&&%%%%=o.#&@@%%@",
"OO@=**- &&&==%&%%%%@%@o.##O@@@@@",
"@%%%O  %%&=**==&OOOO@@ # O%&&%%@",
"%@OOOOOO&=**$**==OO@@@O O@@%%@@%",
"%%%%@OO&=*$o#$##$=OOOOO@@OO%%%@@",
"@%@@@@=**$$#o..$$$O@@OOO@@%%@@@@",
"@OOOO&*$$#o...o.o %%%%@%&&%&&%OO",
"@@OO@@O*#$#o.o   %%&&%====&%%%%@",
"%%%@%@OO     OOOOOO%&==*$*=%@@@@",
"@%%%%%%%OO@%%%@O@%%==*$++$$=O%%@",
"%%%%&&&&&%&&%@@%%%&-*+X+X+##&@@%",
"@@@%%&===&%%%%%%@&--+XXX+$#o#O@@",
"@@%%&=***==%@OOOOOO--*+++o..o#O@",
"@OO&=**+$*$=@@OOO@@OO-*+$$oo#O@@",
"@@&**+XX+$$$&O@@OO@@@O***   O@@@",
"@%**+X+XX++O%@OO@@@@%@O  OOO%%%%",
"%&O**+X++ O&&&%&%%@%%@@@%%@%%&%@",
"@@@O *++ %@@%&==&@@@@@OOOOOO@@@%",
"@@@%%O  @@OO==$#==@@@@@@OO@%%@OO",
"@@@@@@@@@OO=*+#o#==%@%%%%@@@%%%@",
"%@%%&==&@@&*+$o..o#&@@%&&&==&&%%",
"@@@&=***%&**$o#o..o#&%@%&=**=&&%",
"@O&**$$$&@O**$$o$** O@@@%*+XX+OO",
"OOOO**$ O@@O *$$*  O@%%%%O*+X @O",
"@@%@O  OOOOOO    O%%@@@@OOO  OOO",
"@%&&%@%%@OO@@@%%%@@@@@@@@@O@OOO@",
"%@@%%%@@@%@%%&&%@OOOOO@%@%%%%%@%",
"@@%%@@@@@@@@%%%%%@@OO@@@@@%%@@@@"
};
