/* XPM */
static char *_657047508836[] = {
/* columns rows colors chars-per-pixel */
"32 32 13 1 ",
"  c #924160",
". c #863E5A",
"X c #7E3A56",
"o c #B12727",
"O c #6A344B",
"+ c #5C3042",
"@ c #961515",
"# c #562C3E",
"$ c #4B2737",
"% c #890F0F",
"& c #442131",
"* c #521810",
"= c #7B0000",
/* pixels */
"#$&*o*$&$$&$*=*$$*%*$#$$%*$##$##",
"$&**o*&$$&&*==*$**@%*$$**%*$#&$$",
"&&   ..  XX. ..OX.XXOO.X.. ...&&",
"$& XXXXOOXXXXXXXXOOXXXXXXOOOX &#",
"&* O$$$+$$$+OOO+O+++O++OO+++X *$",
"*%XO$    . ..   .X.XX..    +O *%",
"%*.X$ XXOXXOOXXXXXXXXXXX.X +X.%*",
"*$.X$ XXXXXXXXXXXXXXXXXOXX.+OX*#",
"#$XO+..X+++O++O+OOOO++++XXX+OX#$",
"#&.X$.XX$X.   ....XXXXO+XX.+X.&$",
"&*XX$XXX$.XXXXXXXXOXXXX+OX.+X.*#",
"&* X$OXX+.XOOO+O++$+OX.+OX.OX.*$",
"*@ O$.XO$ XOXX..XXXO+X.+XXX+XX%*",
"@%XX+ XX$.XOX++OO++X+XX+XXXOXO@@",
"**XO+ XX$.XOXOXXXX+.OXXOXX.OXO**",
"#$.OO XX+XXOX+XOOX+.OXX+XXXOXX$$",
"#$.OO.XX$.O+X+.+OXOXOX.OXX.+XO&$",
"**.X+XXX+.X+.OXXXXO.OXXOXX +XX**",
"==.X$.XX+XX+XOOO+OOX+XX+XX +OX==",
"*=XX$.XX+.XOXXXXXOXX+X.+XX.+OX*&",
"$*XO$.XX+.XOO++$++$$+O.OXOX+XX$#",
"$$XO+XOX+XXXXXOXXXXXXO.XXOX$X.#$",
"$$XX+.OX+XX.XXX.X......OXO.$XX$#",
"#$XXO.XX+++$+$$$$++O+OOOXX $X **",
"#$XXO XXXXOOXXXXXOXXXXXXXO.+O =o",
"#*XO+ XXXXXXXXXXXXXXXXXXXX.OO.@*",
"$*.X+  .X..     .... .   ..+X.*&",
"oo.X++++O+OOO++O+++$$$+$++++X &$",
"**.XXXXOXXXXXOXOOXXXOOOOXOOXX #$",
"$#....X.X...XX.    ..X.X.     $#",
"$$$&&*o*$$&&*=*#$*@%**$&&*%%#$$#",
"#$&&$&*o*$&&#=*$$*%**#$$$&*%*#$$"
};
