/* XPM */
static char *_657050774931[] = {
/* columns rows colors chars-per-pixel */
"32 32 90 1 ",
"  c #3A1B06",
". c #361D0D",
"X c #3B1D0C",
"o c #361E11",
"O c #3A1E11",
"+ c #35210E",
"@ c #3C210D",
"# c #2E2414",
"$ c #342415",
"% c #3C2313",
"& c #392A17",
"* c #342519",
"= c #38251E",
"- c #32291A",
"; c #3D2A1B",
": c #431E0B",
"> c #491F0D",
", c #44220E",
"< c #49240F",
"1 c #442512",
"2 c #4B2512",
"3 c #452914",
"4 c #4B2915",
"5 c #412718",
"6 c #432B1A",
"7 c #4B2B19",
"8 c #522614",
"9 c #512B17",
"0 c #542D1B",
"q c #5A2F1E",
"w c #4B301D",
"e c #55321E",
"r c #5A331E",
"t c #433021",
"y c #4D372A",
"u c #4D3D2D",
"i c #4C3523",
"p c #553422",
"a c #5B3422",
"s c #553824",
"d c #5D3925",
"f c #54362B",
"g c #533C2C",
"h c #5E3B29",
"j c #4E3C32",
"k c #553E31",
"l c #583C30",
"z c #613625",
"x c #603A27",
"c c #613B29",
"v c #55402F",
"b c #534233",
"n c #584234",
"m c #574338",
"M c #5B4538",
"N c #6F4A37",
"B c #6C4D3C",
"V c #724C35",
"C c #734E3C",
"Z c #784F3E",
"A c #6E523E",
"S c #73513D",
"D c #79503E",
"F c #665140",
"G c #6E5342",
"H c #6E5946",
"J c #735443",
"K c #7B5443",
"L c #745946",
"P c #7D5A46",
"I c #75564A",
"U c #725A4A",
"Y c #7C5D4C",
"T c #7C5F51",
"R c #7B624F",
"E c #7E6352",
"W c #835C47",
"Q c #845D4A",
"! c #895D4C",
"~ c #84614D",
"^ c #8A624E",
"/ c #90614F",
"( c #826553",
") c #8A6452",
"_ c #836952",
"` c #8A6956",
"' c #816758",
"] c #816A5A",
"[ c #8A6A5A",
"{ c #906B58",
/* pixels */
"$$%o%@X1OO%%O%1 @@X,@@@@+@@X5O$$",
";yIE((YJJIA(G'Y(~`QR~_RASR'YTJv$",
"oUT31114Q16141Y41149Q3@44,J661G.",
"%'%_p1a~4[p7e~2~d,pQ4(s<sD4Sf6(%",
"@R%1)qW91<Wr~4<<!z~31,^zQ215GdTX",
"X[33r^r<24a!d,<8q!a24,zWz21wiY[1",
"@N4r^2^q8r!4Wrr9!0!q2x~4!a2q)4T.",
"%Jr^,<<^r~<<<^e~<<2/rW<41Kq)21EO",
"%E)a,4<rWx1,8r^r4<<r^r42>hKq21GO",
"O(1Qx,z^8Wa4sW<~d<r~2~e2dN2Ja1U.",
".J56^rP4,0Qa~42<Wd_34,^rQ276Si(%",
"1Y610^x,4:a^s4<2r~e@,<r!q2217Y(.",
"OY,e)4~r4p)4Qa4rV4`04dQ4)z:pU%G@",
"OGsP44,^0)1<2^9S9<<)aW112!aJ63G%",
".J)a4<4r!a24<rKr4,<rYd722qK016s%",
"%S1~r<r^4Wr4e^<~r<r_2!a2aK1)a1J$",
"@_33Qa)14@SeK211~xV<31~a~444Wh(O",
"+(3 d~9234dSe,61dVr411aQs,,,a![%",
"@~,d(4/a<rS1Sd2d^,Dx1dG2^r2hQ4YO",
",Jd~@,8!r^414Sa!,r<DpB422ZaA16T1",
"1pLp022q/0444qKa,,4rLs124eSp71FO",
".J1(02hC2~z>e`:!d<r_,(a8a^,Jp1Eo",
"$R11)aB314!a^229SrS,17^q^214JsF;",
"+H61eDs411p)e42,rSd4,2a!a421dJH-",
"@E%gS1)e<d~3~r<eD<!d2p)2!z<sJ@U+",
"@ApA,32DaQ,@4~eP,42Qh~,28!eS1wi+",
"@GYs142aZa442eDe3<,cBi12>aSs4%U&",
"%F1Gq4pK4J0<dS2De3aA7Bd4rC7Ae1H$",
"$g;1YaG1%1KfG711JiJ6%6GfG3;1Ufg$",
"%ut6OI566;5J56;63L66&;6I66;6OUm#",
"-uyumukkkumjjkkjkggkkuukgguuMkj*",
"#--#***O$&##*#**$%O%$*-$o;$*=o*="
};
